<?xml version="1.0" encoding="utf-8"?>
<!-- Generator: Adobe Illustrator 23.0.3, SVG Export Plug-In . SVG Version: 6.00 Build 0)  -->
<svg version="1.1" id="Logo_Op_digital_branca_xA0_Imagem_1_"
	 xmlns="http://www.w3.org/2000/svg" xmlns:xlink="http://www.w3.org/1999/xlink" x="0px" y="0px" viewBox="0 0 460.8 259.2"
	 style="enable-background:new 0 0 460.8 259.2;" xml:space="preserve">
<style type="text/css">
	.st0{fill:#FFFFFF;}
</style>
<g>
	<path class="st0" d="M0.24,259.44c0-86.4,0-172.8,0-259.2c153.6,0,307.2,0,460.8,0c0,86.4,0,172.8,0,259.2
		C307.44,259.44,153.84,259.44,0.24,259.44z M118.46,138.43c4.27-0.12,8.26-1.06,12.14-2.45c4.21-1.5,8.36-3.18,12.58-4.64
		c4.95-1.71,9.91-1.94,14.82,0.3c1.74,0.79,3.52,1.53,5.33,2.15c4.51,1.54,9.1-0.29,11.29-4.51c1.06-2.04,1.25-4.16-0.23-6.09
		c-1.41-1.84-3.39-2.54-5.63-2.15c-1.28,0.22-2.58,0.63-3.71,1.25c-1.88,1.04-3.57,2.43-5.45,3.47c-2.01,1.11-4.06,2.31-6.25,2.9
		c-7.5,2.02-14.53,0.39-21.2-3.26c-2.9-1.59-5.68-3.45-8.71-4.73c-3.87-1.63-7.86-1.62-11.61,0.67c-4.22,2.57-6.15,9.51-1.59,14.12
		C112.56,137.79,115.5,138.28,118.46,138.43z M161.34,116.03c-0.14-2.91-1.45-5.65-4.59-7.34c-2.07-1.11-4.32-1.64-6.59-1.36
		c-3.31,0.41-6.66,0.92-9.84,1.87c-5.04,1.51-9.92,3.56-14.95,5.13c-4.67,1.46-9.42,1.62-14.08-0.3c-1.7-0.7-3.35-1.51-5.08-2.11
		c-3.94-1.38-7.56-0.87-10.59,2.21c-1.57,1.59-2.67,3.47-2.29,5.79c0.59,3.54,4.28,5.68,7.93,4.29c2.54-0.96,4.9-2.48,7.19-3.99
		c6.16-4.05,12.79-5.17,19.93-3.57c4.51,1.01,8.52,3.11,12.37,5.6c3.74,2.42,7.69,4.18,12.36,3.56
		C157.77,125.19,161.33,121.26,161.34,116.03z M129.01,94.05c-1.42,0.18-2.87,0.25-4.26,0.56c-5.44,1.19-9.53,4.22-11.95,9.27
		c-1.1,2.28-0.32,4.52,2.04,5.3c1.92,0.64,4.05,0.87,6.09,0.84c4.04-0.06,7.83-1.44,11.59-2.79c6.46-2.32,13.01-4.11,19.98-3.86
		c2.69,0.1,5.21,0.73,7.22,2.48c1.98,1.72,3.75,3.69,5.52,5.63c1.72,1.88,3.21,4.02,5.69,5.02c2.22,0.9,4.14-0.48,3.64-2.82
		c-0.4-1.87-1.01-3.83-2.05-5.41c-3.31-5.07-6.05-6.3-11.17-5.22c-3.29,0.7-6.65,0.59-9.78-0.73c-3.64-1.54-7.17-3.32-10.74-5.02
		C137.08,95.53,133.25,94.09,129.01,94.05z M140.83,151.55c4.37,0.01,8.26-1.38,11.53-4.27c1.92-1.69,3.68-3.57,4.24-6.23
		c0.35-1.68-0.17-3.11-1.58-4.07c-1.66-1.14-3.59-1.36-5.51-1.28c-3.57,0.14-7.02,0.99-10.4,2.14c-5.78,1.97-11.55,3.92-17.69,4.54
		c-4.62,0.47-9.11,0.33-12.78-2.92c-1.93-1.7-3.59-3.72-5.28-5.68c-1.68-1.96-3.38-3.85-5.92-4.7c-1.35-0.45-2.57,0.01-2.98,1.37
		c-0.26,0.87-0.39,1.95-0.11,2.78c0.55,1.65,1.25,3.3,2.2,4.74c2.59,3.93,6.06,5.99,10.99,4.88c2.67-0.6,5.39-0.46,8.08,0.12
		c3.83,0.83,7.29,2.59,10.74,4.34C130.94,149.63,135.58,151.59,140.83,151.55z M124.81,161c1.71-0.37,4.68-0.71,7.44-1.66
		c6.8-2.34,13.72-4.22,20.74-5.77c4.02-0.89,7.99-2.03,11.52-4.23c2.62-1.64,5.12-3.45,5.91-6.75c0.38-1.59-0.61-2.8-2.18-2.35
		c-1.29,0.36-2.67,0.79-3.71,1.58c-2.82,2.15-5.61,4.37-8.17,6.81c-6.37,6.08-13.71,8.06-22.05,5.23
		c-3.68-1.25-7.16-3.11-10.64-4.87c-4.07-2.05-8.26-3.36-12.86-3.05c-2.34,0.16-4.05,1.69-4.25,3.81c-0.14,1.5,0.57,2.71,1.44,3.82
		C111.96,158.64,117.33,160.73,124.81,161z M162.56,95.69c-0.27-0.74-0.44-1.54-0.82-2.22c-2.06-3.7-5.27-6.03-9.18-7.47
		c-5.46-2.02-10.89-1.38-16.18,0.52c-6.55,2.35-13.25,4.13-20.03,5.64c-4.49,0.99-8.95,2.14-12.81,4.83
		c-2.36,1.64-4.41,3.59-5.25,6.47c-0.32,1.09,0.31,2.02,1.44,2.14c0.54,0.06,1.12,0,1.66-0.13c2.48-0.6,4.48-2.07,6.37-3.68
		c2.58-2.2,5.02-4.58,7.66-6.71c4.66-3.78,10.01-5.16,15.94-4.11c3.85,0.68,7.47,2.03,10.88,3.92c3.61,2,7.27,3.88,11.36,4.67
		c1.54,0.3,3.16,0.4,4.72,0.31C160.55,99.73,162.44,97.69,162.56,95.69z M220.98,141.31c0-9.63,0-18.99,0-28.43
		c-1.93,0-3.79,0-5.87,0c0,5.19,0,10.33,0,15.84c-6.36-5.71-12.42-11.16-18.6-16.71c0,9.62,0,18.99,0,28.45
		c1.53,0,2.97-0.06,4.4,0.02c1.06,0.06,1.45-0.21,1.43-1.37c-0.08-4.24-0.03-8.48-0.03-12.72c0-0.4,0.04-0.81,0.07-1.48
		C208.68,130.47,214.75,135.82,220.98,141.31z M271.03,124.84c6.37,5.61,12.45,10.97,18.82,16.59c0-0.8,0-1.21,0-1.63
		c0-8.48,0-16.96,0-25.44c0-1.55,0-1.55-1.6-1.55c-0.96,0-1.93,0.07-2.88-0.02c-1.19-0.12-1.59,0.25-1.57,1.51
		c0.08,4.28,0.03,8.56,0.03,12.84c0,0.41,0,0.82,0,1.57c-6.33-5.69-12.38-11.12-18.6-16.71c0,9.61,0,18.97,0,28.4
		c1.91,0,3.77,0,5.8,0C271.03,135.29,271.03,130.25,271.03,124.84z M233.26,140.39c0-3.76,0-7.37,0-11.12c0.55,0,0.98,0,1.41,0
		c3.48,0,6.95,0.02,10.43-0.03c0.36,0,1.02-0.35,1.03-0.57c0.09-1.5,0.05-3.01,0.05-4.63c-4.37,0-8.58,0-12.87,0
		c0-2.02,0-3.91,0-5.96c4.87,0,9.68,0,14.52,0c0-1.78,0-3.4,0-5.1c-6.87,0-13.68,0-20.55,0c0,9.16,0,18.25,0,27.41
		C229.27,140.39,231.17,140.39,233.26,140.39z M329.68,140.4c0-7.45,0-14.85,0-22.34c2.69,0,5.19,0,7.74,0c0-1.75,0-3.39,0-5.06
		c-7.25,0-14.41,0-21.59,0c0,1.73,0,3.35,0,5.13c2.64,0,5.21,0,7.92,0c0,7.52,0,14.89,0,22.28
		C325.77,140.4,327.63,140.4,329.68,140.4z M189.89,112.78c-1.61,0-3.13,0.07-4.63-0.02c-1.1-0.07-1.33,0.34-1.32,1.36
		c0.04,8.36,0.02,16.72,0.02,25.08c0,0.39,0.04,0.77,0.06,1.18c2.02,0,3.92,0,5.87,0C189.89,131.17,189.89,122.03,189.89,112.78z
		 M252.81,112.78c0,9.3,0,18.44,0,27.57c1.97,0,3.86,0,5.85,0c0-0.42,0-0.73,0-1.04c0-8.44,0-16.88,0-25.32
		c0-0.16,0.06-0.37-0.01-0.47c-0.2-0.27-0.44-0.7-0.69-0.71C256.29,112.75,254.61,112.78,252.81,112.78z M296.6,140.46
		c1.8,0,3.4-0.03,4.99,0.01c0.79,0.02,1.04-0.26,1.04-1.04c-0.02-8.55-0.02-17.1,0-25.66c0-0.81-0.32-1.04-1.07-1.01
		c-1.2,0.05-2.4,0.09-3.59-0.01c-1.16-0.1-1.39,0.35-1.38,1.42c0.04,8.31,0.02,16.62,0.02,24.94
		C296.6,139.51,296.6,139.89,296.6,140.46z M347.66,140.4c0-9.27,0-18.4,0-27.62c-1.57,0-3.05,0.07-4.52-0.02
		c-1.09-0.07-1.33,0.33-1.33,1.36c0.04,8.35,0.02,16.71,0.03,25.07c0,0.39,0.03,0.78,0.05,1.22
		C343.87,140.4,345.73,140.4,347.66,140.4z M116.4,89.8c4.87-0.6,8.93-2,12.47-4.7c0.42-0.32,0.86-1.03,0.78-1.47
		c-0.07-0.37-0.83-0.71-1.35-0.89c-0.47-0.16-1.03-0.17-1.53-0.12c-3.94,0.4-7.66,1.5-10.92,3.81c-0.8,0.57-2.15,1.19-1.69,2.28
		C114.44,89.37,115.85,89.55,116.4,89.8z M142.2,163.21c1.57-0.32,3.28-0.56,4.93-1.03c2.75-0.78,5.35-1.91,7.45-3.92
		c0.32-0.31,0.61-0.98,0.48-1.32c-0.14-0.36-0.78-0.58-1.24-0.74c-0.32-0.11-0.71-0.05-1.07-0.04c-4.3,0.2-8.24,1.47-11.69,4.07
		c-0.6,0.45-0.94,1.26-1.4,1.91C140.46,162.49,141.27,162.82,142.2,163.21z M313.25,137.83c-0.03-1.63-1.45-2.98-3.13-2.97
		c-1.64,0.01-3.11,1.43-3.12,3.02c-0.01,1.63,1.52,3.07,3.23,3.02C311.91,140.86,313.28,139.48,313.25,137.83z"/>
	<path d="M118.46,138.43c-2.97-0.15-5.9-0.63-8.22-2.98c-4.56-4.61-2.64-11.56,1.59-14.12c3.75-2.28,7.74-2.3,11.61-0.67
		c3.03,1.28,5.81,3.14,8.71,4.73c6.67,3.66,13.7,5.28,21.2,3.26c2.19-0.59,4.24-1.79,6.25-2.9c1.88-1.04,3.57-2.43,5.45-3.47
		c1.13-0.62,2.43-1.03,3.71-1.25c2.24-0.38,4.23,0.31,5.63,2.15c1.48,1.94,1.3,4.05,0.23,6.09c-2.19,4.21-6.78,6.05-11.29,4.51
		c-1.81-0.62-3.59-1.35-5.33-2.15c-4.91-2.23-9.87-2.01-14.82-0.3c-4.22,1.46-8.37,3.14-12.58,4.64
		C126.72,137.37,122.73,138.31,118.46,138.43z"/>
	<path d="M161.34,116.03c0,5.23-3.57,9.16-8.23,9.78c-4.67,0.62-8.62-1.14-12.36-3.56c-3.85-2.49-7.87-4.59-12.37-5.6
		c-7.14-1.6-13.77-0.47-19.93,3.57c-2.29,1.5-4.65,3.02-7.19,3.99c-3.65,1.39-7.34-0.75-7.93-4.29c-0.39-2.32,0.72-4.2,2.29-5.79
		c3.03-3.08,6.64-3.58,10.59-2.21c1.73,0.6,3.39,1.41,5.08,2.11c4.65,1.91,9.4,1.75,14.08,0.3c5.03-1.57,9.9-3.62,14.95-5.13
		c3.19-0.95,6.53-1.46,9.84-1.87c2.27-0.28,4.53,0.25,6.59,1.36C159.88,110.38,161.2,113.12,161.34,116.03z"/>
	<path d="M129.01,94.05c4.24,0.04,8.07,1.48,11.81,3.26c3.57,1.7,7.1,3.48,10.74,5.02c3.13,1.32,6.49,1.43,9.78,0.73
		c5.12-1.08,7.86,0.15,11.17,5.22c1.03,1.58,1.64,3.54,2.05,5.41c0.5,2.34-1.41,3.72-3.64,2.82c-2.48-1.01-3.97-3.14-5.69-5.02
		c-1.77-1.94-3.54-3.91-5.52-5.63c-2.02-1.75-4.53-2.38-7.22-2.48c-6.97-0.26-13.52,1.54-19.98,3.86
		c-3.76,1.35-7.55,2.73-11.59,2.79c-2.03,0.03-4.17-0.21-6.09-0.84c-2.36-0.78-3.13-3.02-2.04-5.3c2.42-5.05,6.51-8.08,11.95-9.27
		C126.14,94.31,127.59,94.23,129.01,94.05z"/>
	<path d="M140.83,151.55c-5.25,0.04-9.89-1.92-14.45-4.23c-3.45-1.75-6.91-3.51-10.74-4.34c-2.69-0.58-5.41-0.72-8.08-0.12
		c-4.93,1.1-8.41-0.95-10.99-4.88c-0.95-1.44-1.65-3.1-2.2-4.74c-0.28-0.83-0.15-1.91,0.11-2.78c0.41-1.36,1.63-1.82,2.98-1.37
		c2.54,0.85,4.24,2.74,5.92,4.7c1.69,1.96,3.35,3.97,5.28,5.68c3.68,3.25,8.16,3.39,12.78,2.92c6.13-0.62,11.91-2.58,17.69-4.54
		c3.38-1.15,6.82-2,10.4-2.14c1.92-0.07,3.84,0.15,5.51,1.28c1.4,0.96,1.93,2.39,1.58,4.07c-0.56,2.66-2.33,4.54-4.24,6.23
		C149.08,150.17,145.19,151.56,140.83,151.55z"/>
	<path d="M124.81,161c-7.48-0.27-12.85-2.37-16.81-7.43c-0.87-1.12-1.59-2.33-1.44-3.82c0.2-2.12,1.9-3.65,4.25-3.81
		c4.6-0.31,8.8,1,12.86,3.05c3.48,1.76,6.96,3.62,10.64,4.87c8.34,2.82,15.68,0.84,22.05-5.23c2.56-2.44,5.36-4.66,8.17-6.81
		c1.04-0.79,2.42-1.22,3.71-1.58c1.56-0.44,2.56,0.77,2.18,2.35c-0.79,3.3-3.29,5.11-5.91,6.75c-3.53,2.21-7.5,3.35-11.52,4.23
		c-7.02,1.55-13.93,3.43-20.74,5.77C129.49,160.29,126.52,160.63,124.81,161z"/>
	<path d="M162.56,95.69c-0.12,2.01-2.01,4.05-4.23,4.17c-1.57,0.09-3.18-0.02-4.72-0.31c-4.09-0.79-7.76-2.67-11.36-4.67
		c-3.42-1.89-7.03-3.24-10.88-3.92c-5.93-1.05-11.28,0.33-15.94,4.11c-2.63,2.14-5.08,4.51-7.66,6.71
		c-1.89,1.61-3.89,3.08-6.37,3.68c-0.53,0.13-1.11,0.19-1.66,0.13c-1.13-0.12-1.76-1.05-1.44-2.14c0.84-2.88,2.89-4.83,5.25-6.47
		c3.86-2.68,8.32-3.83,12.81-4.83c6.79-1.5,13.48-3.28,20.03-5.64c5.28-1.9,10.71-2.54,16.18-0.52c3.91,1.45,7.12,3.77,9.18,7.47
		C162.12,94.15,162.29,94.94,162.56,95.69z"/>
	<path d="M220.98,141.31c-6.23-5.49-12.3-10.84-18.61-16.41c-0.03,0.68-0.07,1.08-0.07,1.48c0,4.24-0.05,8.48,0.03,12.72
		c0.02,1.16-0.36,1.43-1.43,1.37c-1.43-0.08-2.87-0.02-4.4-0.02c0-9.47,0-18.84,0-28.45c6.18,5.55,12.24,11,18.6,16.71
		c0-5.51,0-10.65,0-15.84c2.08,0,3.94,0,5.87,0C220.98,122.32,220.98,131.68,220.98,141.31z"/>
	<path d="M271.03,124.84c0,5.41,0,10.45,0,15.55c-2.03,0-3.89,0-5.8,0c0-9.43,0-18.79,0-28.4c6.22,5.59,12.27,11.02,18.6,16.71
		c0-0.75,0-1.16,0-1.57c0-4.28,0.05-8.56-0.03-12.84c-0.02-1.26,0.38-1.63,1.57-1.51c0.95,0.09,1.92,0.02,2.88,0.02
		c1.6,0,1.6,0,1.6,1.55c0,8.48,0,16.96,0,25.44c0,0.42,0,0.84,0,1.63C283.49,135.82,277.4,130.45,271.03,124.84z"/>
	<path d="M233.26,140.39c-2.1,0-4,0-5.97,0c0-9.16,0-18.25,0-27.41c6.87,0,13.68,0,20.55,0c0,1.71,0,3.33,0,5.1
		c-4.85,0-9.65,0-14.52,0c0,2.05,0,3.94,0,5.96c4.28,0,8.5,0,12.87,0c0,1.63,0.04,3.13-0.05,4.63c-0.01,0.22-0.67,0.57-1.03,0.57
		c-3.48,0.04-6.95,0.03-10.43,0.03c-0.43,0-0.86,0-1.41,0C233.26,133.02,233.26,136.64,233.26,140.39z"/>
	<path d="M329.68,140.4c-2.05,0-3.92,0-5.93,0c0-7.39,0-14.75,0-22.28c-2.71,0-5.28,0-7.92,0c0-1.77,0-3.39,0-5.13
		c7.18,0,14.34,0,21.59,0c0,1.66,0,3.31,0,5.06c-2.55,0-5.05,0-7.74,0C329.68,125.55,329.68,132.95,329.68,140.4z"/>
	<path d="M189.89,112.78c0,9.25,0,18.39,0,27.6c-1.95,0-3.85,0-5.87,0c-0.02-0.41-0.06-0.8-0.06-1.18c0-8.36,0.01-16.72-0.02-25.08
		c0-1.02,0.22-1.43,1.32-1.36C186.76,112.85,188.28,112.78,189.89,112.78z"/>
	<path d="M252.81,112.78c1.8,0,3.47-0.03,5.15,0.03c0.24,0.01,0.49,0.44,0.69,0.71c0.08,0.11,0.01,0.31,0.01,0.47
		c0,8.44,0,16.88,0,25.32c0,0.31,0,0.63,0,1.04c-1.98,0-3.87,0-5.85,0C252.81,131.22,252.81,122.09,252.81,112.78z"/>
	<path d="M296.6,140.46c0-0.56,0-0.95,0-1.34c0-8.31,0.02-16.62-0.02-24.94c-0.01-1.07,0.23-1.52,1.38-1.42
		c1.19,0.1,2.4,0.06,3.59,0.01c0.75-0.03,1.07,0.2,1.07,1.01c-0.02,8.55-0.02,17.1,0,25.66c0,0.78-0.25,1.06-1.04,1.04
		C300,140.43,298.4,140.46,296.6,140.46z"/>
	<path d="M347.66,140.4c-1.92,0-3.79,0-5.76,0c-0.02-0.44-0.05-0.83-0.05-1.22c0-8.36,0.01-16.71-0.03-25.07
		c0-1.03,0.23-1.43,1.33-1.36c1.47,0.1,2.95,0.02,4.52,0.02C347.66,122,347.66,131.13,347.66,140.4z"/>
	<path d="M116.4,89.8c-0.56-0.24-1.97-0.43-2.25-1.09c-0.46-1.08,0.89-1.71,1.69-2.28c3.27-2.31,6.98-3.41,10.92-3.81
		c0.51-0.05,1.06-0.05,1.53,0.12c0.52,0.18,1.28,0.52,1.35,0.89c0.08,0.44-0.36,1.15-0.78,1.47C125.33,87.8,121.28,89.2,116.4,89.8z
		"/>
	<path d="M142.2,163.21c-0.93-0.39-1.74-0.73-2.54-1.06c0.46-0.64,0.8-1.45,1.4-1.91c3.45-2.6,7.39-3.87,11.69-4.07
		c0.36-0.02,0.75-0.08,1.07,0.04c0.46,0.16,1.09,0.38,1.24,0.74c0.13,0.33-0.16,1.01-0.48,1.32c-2.1,2.01-4.71,3.14-7.45,3.92
		C145.48,162.65,143.77,162.89,142.2,163.21z"/>
	<path d="M313.25,137.83c0.03,1.64-1.34,3.03-3.02,3.07c-1.71,0.04-3.25-1.39-3.23-3.02c0.01-1.59,1.48-3.01,3.12-3.02
		C311.8,134.85,313.22,136.2,313.25,137.83z"/>
</g>
</svg>
