<?xml version="1.0" encoding="utf-8"?>
<!-- Generator: Adobe Illustrator 23.0.3, SVG Export Plug-In . SVG Version: 6.00 Build 0)  -->
<svg version="1.1" id="Logo_Preta_-_transp_1440x2160_xA0_Imagem_1_"
	 xmlns="http://www.w3.org/2000/svg" xmlns:xlink="http://www.w3.org/1999/xlink" x="0px" y="0px" viewBox="0 0 345.6 518.4"
	 style="enable-background:new 0 0 345.6 518.4;" xml:space="preserve">
<style type="text/css">
	.st0{fill:#FFFFFF;}
</style>
<g>
	<path class="st0" d="M0.24,0.24c115.2,0,230.4,0,345.6,0c0,172.8,0,345.6,0,518.4c-115.2,0-230.4,0-345.6,0
		C0.24,345.84,0.24,173.04,0.24,0.24z M246.75,286.34c2.8,0.05,5.28-0.31,7.62-1.31c4.13-1.76,7.66-4.34,10.05-8.21
		c2-3.24,3.58-6.6,2.88-10.66c-0.89-5.14-4.29-8.31-8.92-9.8c-4.25-1.37-8.38-0.42-12.25,1.29c-3.01,1.33-5.76,3.25-8.57,5
		c-4.7,2.93-9.02,6.45-14.15,8.7c-4.44,1.95-9.08,3.08-13.85,3.61c-3.92,0.44-7.87,0.8-11.82,0.09c-4.15-0.75-8.36-1.23-12.45-2.19
		c-7.1-1.67-13.59-4.88-19.77-8.68c-4.69-2.88-9.21-6.03-14.33-8.19c-4.39-1.85-8.91-3.05-13.64-3.25c-4.84-0.2-9.5,0.71-13.87,2.99
		c-4.22,2.2-7.37,5.46-9.17,9.76c-1.76,4.2-2.8,8.58-1.56,13.3c1.01,3.83,2.74,7.12,5.4,9.98c4.77,5.11,11.02,6.53,17.6,6.86
		c5.52,0.27,10.96-0.63,16.35-1.84c5.66-1.27,11.19-2.96,16.6-5.03c3.88-1.48,7.71-3.1,11.61-4.53c5.05-1.85,10.18-3.5,15.24-5.34
		c4.11-1.5,8.4-1.91,12.68-2.22c2.53-0.18,5.1,0.06,7.63,0.31c1.97,0.2,4,0.46,5.84,1.14c4.79,1.77,9.47,3.82,14.22,5.7
		C239.62,285.2,243.15,286.5,246.75,286.34z M93.53,263.95c2.14,0.29,4.42-0.42,6.68-1.28c5.06-1.93,9.35-5.17,13.79-8.15
		c4.7-3.15,9.66-5.84,15.07-7.49c3.34-1.02,6.8-1.73,10.27-2.2c2.91-0.39,5.91-0.42,8.85-0.27c3.57,0.19,7.19,0.46,10.68,1.21
		c3.76,0.81,7.44,2.11,11.08,3.4c5.29,1.88,10.21,4.53,14.93,7.55c4.78,3.06,9.55,6.13,14.93,8.09c5.63,2.05,11.37,3.17,17.34,1.98
		c5.62-1.12,10.46-3.67,13.95-8.37c2.7-3.63,4.15-7.78,4.1-12.27c-0.03-2.51-0.5-5.08-1.19-7.51c-0.95-3.37-2.93-6.19-5.68-8.41
		c-2.52-2.03-5.31-3.57-8.45-4.36c-3.69-0.93-7.41-1.63-11.24-1.15c-2.29,0.29-4.59,0.52-6.87,0.9c-3.18,0.52-6.44,0.84-9.49,1.8
		c-8.19,2.57-16.32,5.32-24.4,8.21c-5.67,2.03-11.23,4.33-17.1,5.74c-3.5,0.84-6.99,1.63-10.61,1.6c-1.28-0.01-2.56-0.01-3.84,0.04
		c-4.62,0.19-9.08-0.54-13.37-2.25c-4-1.6-7.92-3.42-11.95-4.93c-4.39-1.65-8.88-2.8-13.69-2.01c-4.15,0.68-7.74,2.41-10.9,5.12
		c-3.85,3.3-6.07,7.54-7.08,12.45c-0.1,0.49-0.09,1.06,0.05,1.54c0.28,0.99,0.62,1.98,1.05,2.92c0.5,1.08,0.98,2.23,1.74,3.12
		C85.06,262.32,88.65,264.25,93.53,263.95z M211.11,215.7c1.6,0,3.23-0.18,4.79,0.04c2.92,0.41,5.91,0.74,8.67,1.69
		c4.8,1.64,8.84,4.67,12.26,8.37c3.66,3.95,7.08,8.13,10.62,12.2c2.83,3.26,5.93,6.14,10,7.82c4.46,1.84,7.92-1.21,8.12-4.61
		c0.15-2.5-0.3-4.82-1.08-7.13c-1.56-4.57-4.12-8.55-7.27-12.15c-2.33-2.66-4.94-4.99-8.2-6.5c-3.86-1.79-7.86-1.49-11.87-0.78
		c-4.41,0.78-8.83,1.32-13.33,0.94c-4.4-0.38-8.74-1.15-12.81-2.87c-4.63-1.96-9.14-4.19-13.69-6.32
		c-5.81-2.72-11.57-5.57-17.44-8.16c-4.85-2.14-10.03-3.23-15.31-3.5c-6.21-0.32-12.32,0.34-18.26,2.44
		c-7.68,2.71-13.8,7.41-18.62,13.9c-1.98,2.67-3.68,5.43-4.29,8.83c-0.6,3.35,1.85,7.37,4.5,8.69c2.24,1.12,4.58,1.75,7.06,2.13
		c4.61,0.7,9.18,0.26,13.72-0.33c2.8-0.36,5.55-1.16,8.27-1.95c3.99-1.15,7.94-2.42,11.89-3.72c4.05-1.34,8.04-2.9,12.13-4.11
		c3.78-1.12,7.66-1.93,11.5-2.84C198.59,216.31,204.81,215.67,211.11,215.7z M189.89,325.73c1.27-0.14,3.85-0.21,6.32-0.74
		c5.06-1.09,9.91-2.78,14.21-5.8c5.54-3.88,10.4-8.38,13.15-14.73c1.01-2.34,1.54-4.81,0.78-7.35c-0.98-3.34-3.48-5.17-6.57-6.3
		c-5.97-2.18-12.07-1.35-18.1-0.47c-3.38,0.49-6.7,1.5-9.99,2.44c-3.19,0.9-6.31,2.01-9.47,3.03c-4.18,1.35-8.33,2.78-12.54,4.01
		c-3.98,1.17-8,2.24-12.05,3.14c-2.91,0.65-5.9,0.99-8.86,1.37c-2.8,0.36-5.62,0.75-8.44,0.84c-2.5,0.08-5.03-0.09-7.52-0.39
		c-2.29-0.27-4.69-0.5-6.79-1.37c-7.5-3.11-13.56-8.14-18.47-14.6c-2.12-2.79-4.38-5.49-6.72-8.11c-2.79-3.13-6.24-5.38-10.28-6.54
		c-0.98-0.28-2.27-0.17-3.21,0.25c-2.47,1.08-3.58,3.25-3.62,5.87c-0.08,4.35,1.56,8.24,3.83,11.79c1.82,2.84,3.94,5.54,6.21,8.03
		c2.27,2.48,5.01,4.42,8.31,5.48c4.51,1.44,9.03,0.87,13.51,0.08c4.59-0.82,9.13-0.74,13.71-0.17c6.62,0.83,12.74,3.23,18.73,6.02
		c6.19,2.89,12.3,5.93,18.49,8.81C172.14,323.87,180.2,325.57,189.89,325.73z M199.33,173.18c-2.74,0.23-5.5,0.3-8.2,0.74
		c-6.76,1.11-13.23,3.31-19.69,5.55c-4.49,1.55-8.95,3.23-13.54,4.44c-8.17,2.16-16.44,3.96-24.64,6.02
		c-5.49,1.38-10.97,2.83-16.38,4.51c-6.38,1.99-12.28,4.99-17.32,9.47c-3.77,3.34-7.08,7.05-8.45,12.09
		c-0.53,1.94,0.62,4.06,2.55,4.61c2.5,0.71,4.9,0.05,7.14-0.87c4.23-1.74,8.05-4.25,11.51-7.23c4.05-3.5,8-7.11,11.96-10.72
		c3.87-3.54,7.95-6.82,12.46-9.49c3.49-2.06,7.25-3.54,11.23-4.39c2.34-0.5,4.7-1.07,7.07-1.2c4.71-0.27,9.42-0.18,14.02,1.17
		c3.79,1.11,7.75,1.79,11.36,3.29c5.33,2.22,10.46,4.94,15.61,7.56c6.13,3.12,12.34,6.04,19.06,7.67c3.96,0.96,7.88,2.01,12.09,1.52
		c2.75-0.32,5.21-1.12,7.2-2.88c1.95-1.72,3.39-3.86,3.35-6.73c-0.03-2.71-1.18-4.98-2.57-7.1c-3.16-4.81-7.3-8.7-12.28-11.58
		C215.62,175.41,207.81,173.12,199.33,173.18z M150.08,347.13c1.25-0.14,3.55-0.4,5.85-0.65c4.34-0.47,8.56-1.48,12.69-2.84
		c3.83-1.26,7.61-2.66,11.44-3.92c3.6-1.19,7.21-2.35,10.85-3.38c3.26-0.92,6.56-1.7,9.87-2.46c4.04-0.93,8.11-1.7,12.14-2.68
		c3.72-0.9,7.44-1.84,11.08-3.03c4.7-1.53,9.35-3.22,13.94-5.05c3.96-1.58,7.37-4.15,10.64-6.84c3.79-3.11,6.63-6.88,7.66-11.84
		c0.53-2.58-1.83-5.33-4.39-4.87c-1.33,0.24-2.67,0.57-3.93,1.05c-4.42,1.67-8.35,4.22-11.89,7.28
		c-5.23,4.52-10.23,9.29-15.43,13.86c-4.53,3.98-9.54,7.22-15.25,9.3c-3.66,1.33-7.44,2.17-11.3,2.5c-2.54,0.22-5.14,0.37-7.66,0.06
		c-3.75-0.46-7.47-1.22-11.15-2.08c-4.99-1.17-9.74-3.1-14.31-5.41c-5.2-2.63-10.28-5.49-15.52-8.03c-2.86-1.39-5.87-2.53-8.92-3.4
		c-2.9-0.83-5.94-1.19-8.92-1.69c-3.28-0.55-6.55-0.54-9.85,0.14c-6.01,1.24-10.18,8.26-5.93,14.83c3.8,5.87,8.86,10.38,14.98,13.66
		C133.7,345.37,141.2,346.93,150.08,347.13z M133.84,184.54c1.89-0.31,4.04-0.51,6.11-1.03c2.73-0.7,5.43-1.57,8.09-2.51
		c4.53-1.6,8.88-3.59,12.67-6.61c0.76-0.61,1.42-1.41,1.92-2.24c0.87-1.46,0.45-2.57-1.15-3.18c-1.4-0.53-2.8-1.15-4.37-0.89
		c-1.12,0.19-2.24,0.38-3.35,0.58c-1.91,0.35-3.83,0.67-5.74,1.07c-5.56,1.19-10.74,3.37-15.49,6.45c-1.75,1.14-3.35,2.59-4.79,4.11
		c-1.24,1.31-0.94,2.27,0.59,3.17c0.37,0.22,0.79,0.41,1.21,0.48C130.87,184.16,132.21,184.32,133.84,184.54z M215.93,335.93
		c-3.04,0.49-6.08,0.84-9.07,1.48c-4.74,1.02-9.29,2.63-13.49,5.13c-2.54,1.51-5.12,2.97-7.08,5.26c-1.22,1.41-0.83,2.76,0.87,3.52
		c1.26,0.57,2.54,0.92,3.92,0.75c1.37-0.16,2.74-0.31,4.09-0.57c2.86-0.55,5.75-0.98,8.54-1.79c3.95-1.16,7.78-2.71,11.22-5.01
		c2.01-1.34,3.91-2.89,5.64-4.57c1.25-1.22,0.85-2.72-0.78-3.36C218.6,336.3,217.27,336.21,215.93,335.93z"/>
	<path d="M246.75,286.34c-3.6,0.17-7.13-1.14-10.63-2.52c-4.75-1.88-9.43-3.93-14.22-5.7c-1.84-0.68-3.87-0.94-5.84-1.14
		c-2.53-0.26-5.11-0.5-7.63-0.31c-4.28,0.31-8.57,0.72-12.68,2.22c-5.06,1.84-10.18,3.5-15.24,5.34c-3.9,1.42-7.73,3.04-11.61,4.53
		c-5.41,2.07-10.94,3.76-16.6,5.03c-5.39,1.21-10.83,2.11-16.35,1.84c-6.58-0.33-12.83-1.75-17.6-6.86
		c-2.67-2.86-4.39-6.15-5.4-9.98c-1.25-4.72-0.2-9.09,1.56-13.3c1.8-4.3,4.95-7.56,9.17-9.76c4.37-2.28,9.03-3.19,13.87-2.99
		c4.73,0.2,9.25,1.4,13.64,3.25c5.12,2.16,9.64,5.31,14.33,8.19c6.18,3.8,12.67,7.01,19.77,8.68c4.1,0.96,8.3,1.45,12.45,2.19
		c3.95,0.71,7.9,0.35,11.82-0.09c4.77-0.53,9.41-1.67,13.85-3.61c5.13-2.25,9.45-5.77,14.15-8.7c2.81-1.75,5.56-3.68,8.57-5
		c3.86-1.71,8-2.66,12.25-1.29c4.62,1.5,8.03,4.67,8.92,9.8c0.7,4.07-0.87,7.42-2.88,10.66c-2.39,3.87-5.92,6.44-10.05,8.21
		C252.03,286.02,249.55,286.39,246.75,286.34z"/>
	<path d="M93.53,263.95c-4.88,0.3-8.47-1.63-11.35-4.98c-0.76-0.89-1.24-2.04-1.74-3.12c-0.44-0.93-0.77-1.93-1.05-2.92
		c-0.14-0.48-0.15-1.05-0.05-1.54c1-4.91,3.23-9.15,7.08-12.45c3.16-2.71,6.75-4.45,10.9-5.12c4.81-0.78,9.3,0.37,13.69,2.01
		c4.03,1.51,7.95,3.33,11.95,4.93c4.28,1.71,8.75,2.44,13.37,2.25c1.28-0.05,2.56-0.05,3.84-0.04c3.62,0.02,7.11-0.76,10.61-1.6
		c5.88-1.41,11.44-3.71,17.1-5.74c8.08-2.89,16.21-5.64,24.4-8.21c3.05-0.96,6.31-1.28,9.49-1.8c2.28-0.37,4.58-0.61,6.87-0.9
		c3.84-0.48,7.56,0.22,11.24,1.15c3.14,0.79,5.93,2.33,8.45,4.36c2.75,2.22,4.73,5.04,5.68,8.41c0.68,2.43,1.16,5,1.19,7.51
		c0.05,4.5-1.4,8.64-4.1,12.27c-3.49,4.7-8.33,7.25-13.95,8.37c-5.97,1.19-11.71,0.06-17.34-1.98c-5.38-1.96-10.15-5.02-14.93-8.09
		c-4.72-3.03-9.64-5.68-14.93-7.55c-3.64-1.29-7.32-2.59-11.08-3.4c-3.49-0.75-7.1-1.02-10.68-1.21c-2.94-0.15-5.94-0.13-8.85,0.27
		c-3.46,0.47-6.93,1.18-10.27,2.2c-5.41,1.65-10.37,4.34-15.07,7.49c-4.44,2.98-8.72,6.22-13.79,8.15
		C97.96,263.53,95.67,264.24,93.53,263.95z"/>
	<path d="M211.11,215.7c-6.29-0.03-12.51,0.61-18.64,2.06c-3.84,0.91-7.72,1.72-11.5,2.84c-4.09,1.21-8.07,2.78-12.13,4.11
		c-3.94,1.3-7.9,2.57-11.89,3.72c-2.72,0.79-5.48,1.58-8.27,1.95c-4.54,0.59-9.11,1.02-13.72,0.33c-2.48-0.37-4.82-1.01-7.06-2.13
		c-2.65-1.32-5.1-5.33-4.5-8.69c0.61-3.4,2.31-6.16,4.29-8.83c4.82-6.49,10.94-11.19,18.62-13.9c5.94-2.1,12.05-2.76,18.26-2.44
		c5.28,0.28,10.46,1.36,15.31,3.5c5.87,2.59,11.63,5.44,17.44,8.16c4.55,2.13,9.07,4.36,13.69,6.32c4.07,1.72,8.4,2.49,12.81,2.87
		c4.5,0.38,8.91-0.15,13.33-0.94c4.01-0.71,8.01-1.01,11.87,0.78c3.26,1.51,5.87,3.84,8.2,6.5c3.15,3.61,5.72,7.59,7.27,12.15
		c0.78,2.3,1.23,4.63,1.08,7.13c-0.2,3.4-3.66,6.45-8.12,4.61c-4.07-1.68-7.18-4.57-10-7.82c-3.53-4.07-6.95-8.25-10.62-12.2
		c-3.43-3.7-7.47-6.72-12.26-8.37c-2.76-0.95-5.76-1.27-8.67-1.69C214.33,215.52,212.71,215.7,211.11,215.7z"/>
	<path d="M189.89,325.73c-9.69-0.16-17.75-1.87-25.38-5.42c-6.19-2.88-12.3-5.92-18.49-8.81c-5.98-2.79-12.1-5.2-18.73-6.02
		c-4.58-0.57-9.13-0.65-13.71,0.17c-4.48,0.8-9,1.37-13.51-0.08c-3.3-1.05-6.04-3-8.31-5.48c-2.28-2.49-4.39-5.19-6.21-8.03
		c-2.27-3.55-3.91-7.44-3.83-11.79c0.05-2.62,1.15-4.78,3.62-5.87c0.94-0.41,2.23-0.53,3.21-0.25c4.04,1.16,7.49,3.41,10.28,6.54
		c2.34,2.62,4.59,5.32,6.72,8.11c4.92,6.46,10.97,11.49,18.47,14.6c2.1,0.87,4.5,1.1,6.79,1.37c2.49,0.3,5.02,0.47,7.52,0.39
		c2.82-0.09,5.63-0.48,8.44-0.84c2.96-0.38,5.95-0.72,8.86-1.37c4.05-0.9,8.06-1.97,12.05-3.14c4.21-1.23,8.36-2.67,12.54-4.01
		c3.15-1.02,6.28-2.13,9.47-3.03c3.3-0.94,6.62-1.94,9.99-2.44c6.03-0.88,12.13-1.71,18.1,0.47c3.09,1.13,5.58,2.96,6.57,6.3
		c0.75,2.54,0.23,5.01-0.78,7.35c-2.75,6.35-7.61,10.85-13.15,14.73c-4.3,3.01-9.16,4.7-14.21,5.8
		C193.73,325.53,191.16,325.6,189.89,325.73z"/>
	<path d="M199.33,173.18c8.48-0.06,16.29,2.24,23.54,6.44c4.98,2.88,9.11,6.77,12.28,11.58c1.4,2.12,2.54,4.39,2.57,7.1
		c0.04,2.87-1.4,5.02-3.35,6.73c-1.99,1.75-4.45,2.56-7.2,2.88c-4.21,0.49-8.13-0.56-12.09-1.52c-6.72-1.63-12.93-4.55-19.06-7.67
		c-5.15-2.62-10.28-5.34-15.61-7.56c-3.62-1.51-7.58-2.18-11.36-3.29c-4.6-1.35-9.31-1.43-14.02-1.17c-2.37,0.13-4.73,0.7-7.07,1.2
		c-3.97,0.85-7.74,2.33-11.23,4.39c-4.52,2.67-8.59,5.95-12.46,9.49c-3.95,3.61-7.91,7.22-11.96,10.72
		c-3.46,2.99-7.28,5.49-11.51,7.23c-2.23,0.92-4.64,1.57-7.14,0.87c-1.93-0.55-3.08-2.67-2.55-4.61c1.38-5.04,4.69-8.75,8.45-12.09
		c5.04-4.47,10.95-7.47,17.32-9.47c5.4-1.69,10.89-3.13,16.38-4.51c8.2-2.07,16.47-3.86,24.64-6.02c4.58-1.21,9.05-2.89,13.54-4.44
		c6.46-2.24,12.93-4.44,19.69-5.55C193.83,173.47,196.6,173.41,199.33,173.18z"/>
	<path d="M150.08,347.13c-8.88-0.2-16.38-1.76-23.3-5.48c-6.12-3.28-11.18-7.79-14.98-13.66c-4.25-6.57-0.08-13.59,5.93-14.83
		c3.29-0.68,6.56-0.7,9.85-0.14c2.99,0.5,6.02,0.86,8.92,1.69c3.05,0.87,6.07,2.01,8.92,3.4c5.24,2.54,10.33,5.4,15.52,8.03
		c4.57,2.31,9.31,4.24,14.31,5.41c3.68,0.86,7.4,1.62,11.15,2.08c2.52,0.31,5.12,0.16,7.66-0.06c3.86-0.33,7.64-1.17,11.3-2.5
		c5.71-2.08,10.72-5.32,15.25-9.3c5.19-4.56,10.2-9.34,15.43-13.86c3.54-3.06,7.47-5.61,11.89-7.28c1.26-0.48,2.6-0.81,3.93-1.05
		c2.56-0.46,4.92,2.29,4.39,4.87c-1.03,4.95-3.87,8.73-7.66,11.84c-3.28,2.68-6.68,5.26-10.64,6.84c-4.59,1.83-9.24,3.51-13.94,5.05
		c-3.63,1.19-7.36,2.13-11.08,3.03c-4.03,0.98-8.1,1.75-12.14,2.68c-3.3,0.76-6.61,1.54-9.87,2.46c-3.64,1.03-7.25,2.2-10.85,3.38
		c-3.83,1.26-7.61,2.66-11.44,3.92c-4.13,1.36-8.36,2.37-12.69,2.84C153.63,346.73,151.33,346.99,150.08,347.13z"/>
	<path d="M133.84,184.54c-1.62-0.22-2.96-0.38-4.3-0.6c-0.42-0.07-0.84-0.26-1.21-0.48c-1.53-0.91-1.83-1.86-0.59-3.17
		c1.44-1.52,3.04-2.97,4.79-4.11c4.76-3.08,9.93-5.27,15.49-6.45c1.9-0.41,3.82-0.72,5.74-1.07c1.12-0.2,2.23-0.4,3.35-0.58
		c1.57-0.26,2.97,0.36,4.37,0.89c1.6,0.61,2.02,1.72,1.15,3.18c-0.5,0.84-1.16,1.64-1.92,2.24c-3.79,3.02-8.14,5.01-12.67,6.61
		c-2.66,0.94-5.36,1.82-8.09,2.51C137.88,184.04,135.72,184.24,133.84,184.54z"/>
	<path d="M215.93,335.93c1.34,0.28,2.67,0.37,3.86,0.84c1.63,0.64,2.03,2.14,0.78,3.36c-1.73,1.68-3.63,3.23-5.64,4.57
		c-3.44,2.3-7.27,3.86-11.22,5.01c-2.78,0.81-5.68,1.25-8.54,1.79c-1.35,0.26-2.72,0.41-4.09,0.57c-1.38,0.16-2.66-0.19-3.92-0.75
		c-1.7-0.76-2.09-2.11-0.87-3.52c1.96-2.28,4.54-3.74,7.08-5.26c4.2-2.5,8.74-4.11,13.49-5.13
		C209.85,336.77,212.9,336.42,215.93,335.93z"/>
</g>
</svg>
